<svg id="Layer_1" data-name="Layer 1" xmlns="http://www.w3.org/2000/svg" xmlns:xlink="http://www.w3.org/1999/xlink" width="2817" height="4828" viewBox="0 0 2817 4828">
  <defs>
    <style>
      .cls-1, .cls-5 {
        fill: none;
      }

      .cls-2 {
        fill: #efefef;
      }

      .cls-3, .cls-4, .cls-6 {
        opacity: 0.72;
      }

      .cls-3 {
        fill: url(#New_Pattern_Swatch_1);
      }

      .cls-5 {
        stroke: #8fdbdc;
      }

      .cls-6 {
        fill: url(#New_Pattern_Swatch_1-3);
      }
    </style>
    <pattern id="New_Pattern_Swatch_1" data-name="New Pattern Swatch 1" width="167.21" height="166.36" patternTransform="translate(-583.14 -117.65) scale(1.45)" patternUnits="userSpaceOnUse" viewBox="0 0 167.21 166.36">
      <rect class="cls-1" width="167.21" height="166.36"/>
      <g>
        <path class="cls-2" d="M143.19,141.13c7.75-2.91,15.14-5.71,22.57-8.45,2.37-.87,4.83-1.47,7.2-2.35a3.57,3.57,0,0,1,4.64,1.45c3.62,4.88,7.32,9.69,11,14.53.59.77,1.19,1.52,2.1,2.7a28.72,28.72,0,0,1-3.39,0q-9.18-1.23-18.34-2.56-10.51-1.55-21-3.19A7.86,7.86,0,0,1,143.19,141.13Z"/>
        <path class="cls-2" d="M142.81,139.74a7.75,7.75,0,0,1,.9-1.5q17.22-18.34,34.5-36.64a8.1,8.1,0,0,1,1.8-1.1l.41.34c-.32,1.9-.54,3.82-1,5.69-1.15,5.07-2.36,10.12-3.58,15.17a9,9,0,0,1-5.33,6.5c-4.09,1.79-8.13,3.7-12.23,5.49-4.58,2-9.2,3.94-13.81,5.9-.44.18-.89.32-1.34.48Z"/>
      </g>
      <g>
        <path class="cls-2" d="M59.2,181.33a8.64,8.64,0,0,1,.9-1.5q17.24-18.35,34.51-36.64a8.26,8.26,0,0,1,1.79-1.1l.41.34c-.31,1.9-.53,3.82-1,5.69-1.14,5.07-2.35,10.12-3.57,15.17a9,9,0,0,1-5.33,6.5c-4.1,1.79-8.14,3.7-12.23,5.49-4.59,2-9.21,3.94-13.81,5.9-.44.19-.9.32-1.35.48Z"/>
        <path class="cls-2" d="M107.4,189.69c-1.5-2.42-3.05-4.81-4.51-7.26-2.38-4-4.78-8-7-12.11a7.38,7.38,0,0,1-.88-4c.8-7.63,1.79-15.24,2.71-22.85a4.57,4.57,0,0,1,.39-.7,16.9,16.9,0,0,1,.92,2.41c1.28,6,2.52,12.07,3.79,18.1,1.62,7.69,3.27,15.38,4.87,23.08a26.39,26.39,0,0,1,.3,3.22Z"/>
      </g>
      <g>
        <path class="cls-2" d="M-24,141.13c7.75-2.91,15.15-5.71,22.57-8.45,2.37-.87,4.84-1.47,7.2-2.35a3.57,3.57,0,0,1,4.64,1.45c3.62,4.88,7.33,9.69,11,14.53.59.77,1.19,1.52,2.1,2.7a28.77,28.77,0,0,1-3.39,0q-9.18-1.23-18.33-2.56-10.53-1.55-21-3.19A7.86,7.86,0,0,1-24,141.13Z"/>
        <path class="cls-2" d="M-24.4,139.74a8.28,8.28,0,0,1,.9-1.5Q-6.26,119.9,11,101.6a8,8,0,0,1,1.79-1.1l.41.34c-.32,1.9-.54,3.82-1,5.69-1.14,5.07-2.36,10.12-3.58,15.17a9,9,0,0,1-5.32,6.5c-4.1,1.79-8.14,3.7-12.24,5.49-4.58,2-9.2,3.94-13.81,5.9-.43.18-.89.32-1.34.48Z"/>
        <path class="cls-2" d="M23.8,148.1c-1.51-2.42-3.05-4.81-4.51-7.27-2.38-4-4.78-8-7-12.1a7.3,7.3,0,0,1-.88-4c.8-7.63,1.78-15.24,2.71-22.85a3.75,3.75,0,0,1,.39-.7,18,18,0,0,1,.91,2.41c1.29,6,2.53,12.07,3.8,18.1,1.62,7.69,3.27,15.38,4.86,23.08A28.54,28.54,0,0,1,24.4,148Z"/>
      </g>
      <g>
        <path class="cls-2" d="M143.19,58c7.75-2.91,15.14-5.72,22.57-8.45,2.37-.87,4.83-1.47,7.2-2.35a3.56,3.56,0,0,1,4.64,1.45c3.62,4.88,7.32,9.69,11,14.53.59.77,1.19,1.52,2.1,2.69a29,29,0,0,1-3.39,0q-9.18-1.23-18.34-2.56-10.51-1.55-21-3.2A7.78,7.78,0,0,1,143.19,58Z"/>
        <path class="cls-2" d="M142.81,56.56a7.75,7.75,0,0,1,.9-1.5q17.22-18.35,34.5-36.64a8.13,8.13,0,0,1,1.8-1.11l.41.35c-.32,1.9-.54,3.81-1,5.69-1.15,5.07-2.36,10.12-3.58,15.17a9,9,0,0,1-5.33,6.5c-4.09,1.78-8.13,3.7-12.23,5.49-4.58,2-9.2,3.94-13.81,5.9-.44.18-.89.32-1.34.48Z"/>
      </g>
      <g>
        <path class="cls-2" d="M59.58,99.54c7.75-2.91,15.15-5.71,22.57-8.45,2.37-.87,4.84-1.47,7.2-2.35A3.57,3.57,0,0,1,94,90.19c3.62,4.88,7.33,9.69,11,14.53.58.77,1.18,1.52,2.1,2.69a29.17,29.17,0,0,1-3.4,0q-9.17-1.23-18.33-2.56-10.53-1.55-21-3.2A7.81,7.81,0,0,1,59.58,99.54Z"/>
        <path class="cls-2" d="M59.2,98.15a8.28,8.28,0,0,1,.9-1.5Q77.34,78.31,94.61,60A8.29,8.29,0,0,1,96.4,58.9l.41.35c-.31,1.9-.53,3.82-1,5.69C94.71,70,93.5,75.06,92.28,80.11A9,9,0,0,1,87,86.61c-4.1,1.79-8.14,3.7-12.23,5.49-4.59,2-9.21,3.94-13.81,5.9-.44.18-.9.32-1.35.48Z"/>
        <path class="cls-2" d="M107.4,106.51c-1.5-2.42-3.05-4.82-4.51-7.27-2.38-4-4.78-8-7-12.1a7.4,7.4,0,0,1-.88-4c.8-7.63,1.79-15.24,2.71-22.85a4.57,4.57,0,0,1,.39-.7A16.9,16.9,0,0,1,99,62c1.28,6,2.52,12.06,3.79,18.1,1.62,7.69,3.27,15.38,4.87,23.07a26.74,26.74,0,0,1,.3,3.23Z"/>
      </g>
      <g>
        <path class="cls-2" d="M-24,58C-16.27,55-8.87,52.23-1.45,49.5c2.37-.87,4.84-1.47,7.2-2.35a3.56,3.56,0,0,1,4.64,1.45c3.62,4.88,7.33,9.69,11,14.53.59.77,1.19,1.52,2.1,2.69a29,29,0,0,1-3.39,0q-9.18-1.23-18.33-2.56-10.53-1.55-21-3.2A7.78,7.78,0,0,1-24,58Z"/>
        <path class="cls-2" d="M-24.4,56.56a8.28,8.28,0,0,1,.9-1.5Q-6.26,36.71,11,18.42a8.06,8.06,0,0,1,1.79-1.11l.41.35c-.32,1.9-.54,3.81-1,5.69-1.14,5.07-2.36,10.12-3.58,15.17A9,9,0,0,1,3.35,45c-4.1,1.78-8.14,3.7-12.24,5.49-4.58,2-9.2,3.94-13.81,5.9-.43.18-.89.32-1.34.48Z"/>
        <path class="cls-2" d="M23.8,64.92c-1.51-2.42-3.05-4.82-4.51-7.27-2.38-4-4.78-8-7-12.1a7.33,7.33,0,0,1-.88-4c.8-7.62,1.78-15.23,2.71-22.84a3.44,3.44,0,0,1,.39-.7,18,18,0,0,1,.91,2.41c1.29,6,2.53,12.06,3.8,18.09,1.62,7.7,3.27,15.39,4.86,23.08a28.72,28.72,0,0,1,.31,3.23Z"/>
      </g>
      <g>
        <path class="cls-2" d="M59.58,16.36c7.75-2.91,15.15-5.72,22.57-8.45C84.52,7,87,6.44,89.35,5.56A3.56,3.56,0,0,1,94,7c3.62,4.88,7.33,9.69,11,14.53.58.77,1.18,1.52,2.1,2.69a26.89,26.89,0,0,1-3.4,0Q94.54,23,85.37,21.66q-10.53-1.55-21-3.2A7.81,7.81,0,0,1,59.58,16.36Z"/>
        <path class="cls-2" d="M59.2,15a8.37,8.37,0,0,1,.9-1.51Q77.34-4.87,94.61-23.18a8.26,8.26,0,0,1,1.79-1.1l.41.35c-.31,1.9-.53,3.81-1,5.69C94.71-13.17,93.5-8.12,92.28-3.07A9,9,0,0,1,87,3.43c-4.1,1.78-8.14,3.7-12.23,5.49-4.59,2-9.21,3.94-13.81,5.9-.44.18-.9.32-1.35.47Z"/>
        <path class="cls-2" d="M107.4,23.33c-1.5-2.42-3.05-4.82-4.51-7.27-2.38-4-4.78-8-7-12.1A7.44,7.44,0,0,1,95,0c.8-7.62,1.79-15.23,2.71-22.84a4.11,4.11,0,0,1,.39-.7A16.9,16.9,0,0,1,99-21.18c1.28,6,2.52,12.06,3.79,18.09,1.62,7.7,3.27,15.38,4.87,23.08a26.55,26.55,0,0,1,.3,3.23Z"/>
      </g>
    </pattern>
    <pattern id="New_Pattern_Swatch_1-3" data-name="New Pattern Swatch 1" width="167.21" height="166.36" patternTransform="translate(-301.92 108.99) scale(1.37)" patternUnits="userSpaceOnUse" viewBox="0 0 167.21 166.36">
      <rect class="cls-1" width="167.21" height="166.36"/>
      <g>
        <path class="cls-2" d="M143.19,141.13c7.75-2.91,15.14-5.71,22.57-8.45,2.37-.87,4.83-1.47,7.2-2.35a3.57,3.57,0,0,1,4.64,1.45c3.62,4.88,7.32,9.69,11,14.53.59.77,1.19,1.52,2.1,2.7a28.72,28.72,0,0,1-3.39,0q-9.18-1.23-18.34-2.56-10.51-1.55-21-3.19A7.86,7.86,0,0,1,143.19,141.13Z"/>
        <path class="cls-2" d="M142.81,139.74a7.75,7.75,0,0,1,.9-1.5q17.22-18.34,34.5-36.64a8.1,8.1,0,0,1,1.8-1.1l.41.34c-.32,1.9-.54,3.82-1,5.69-1.15,5.07-2.36,10.12-3.58,15.17a9,9,0,0,1-5.33,6.5c-4.09,1.79-8.13,3.7-12.23,5.49-4.58,2-9.2,3.94-13.81,5.9-.44.18-.89.32-1.34.48Z"/>
      </g>
      <g>
        <path class="cls-2" d="M59.2,181.33a8.64,8.64,0,0,1,.9-1.5q17.24-18.35,34.51-36.64a8.26,8.26,0,0,1,1.79-1.1l.41.34c-.31,1.9-.53,3.82-1,5.69-1.14,5.07-2.35,10.12-3.57,15.17a9,9,0,0,1-5.33,6.5c-4.1,1.79-8.14,3.7-12.23,5.49-4.59,2-9.21,3.94-13.81,5.9-.44.19-.9.32-1.35.48Z"/>
        <path class="cls-2" d="M107.4,189.69c-1.5-2.42-3.05-4.81-4.51-7.26-2.38-4-4.78-8-7-12.11a7.38,7.38,0,0,1-.88-4c.8-7.63,1.79-15.24,2.71-22.85a4.57,4.57,0,0,1,.39-.7,16.9,16.9,0,0,1,.92,2.41c1.28,6,2.52,12.07,3.79,18.1,1.62,7.69,3.27,15.38,4.87,23.08a26.39,26.39,0,0,1,.3,3.22Z"/>
      </g>
      <g>
        <path class="cls-2" d="M-24,141.13c7.75-2.91,15.15-5.71,22.57-8.45,2.37-.87,4.84-1.47,7.2-2.35a3.57,3.57,0,0,1,4.64,1.45c3.62,4.88,7.33,9.69,11,14.53.59.77,1.19,1.52,2.1,2.7a28.77,28.77,0,0,1-3.39,0q-9.18-1.23-18.33-2.56-10.53-1.55-21-3.19A7.86,7.86,0,0,1-24,141.13Z"/>
        <path class="cls-2" d="M-24.4,139.74a8.28,8.28,0,0,1,.9-1.5Q-6.26,119.9,11,101.6a8,8,0,0,1,1.79-1.1l.41.34c-.32,1.9-.54,3.82-1,5.69-1.14,5.07-2.36,10.12-3.58,15.17a9,9,0,0,1-5.32,6.5c-4.1,1.79-8.14,3.7-12.24,5.49-4.58,2-9.2,3.94-13.81,5.9-.43.18-.89.32-1.34.48Z"/>
        <path class="cls-2" d="M23.8,148.1c-1.51-2.42-3.05-4.81-4.51-7.27-2.38-4-4.78-8-7-12.1a7.3,7.3,0,0,1-.88-4c.8-7.63,1.78-15.24,2.71-22.85a3.75,3.75,0,0,1,.39-.7,18,18,0,0,1,.91,2.41c1.29,6,2.53,12.07,3.8,18.1,1.62,7.69,3.27,15.38,4.86,23.08A28.54,28.54,0,0,1,24.4,148Z"/>
      </g>
      <g>
        <path class="cls-2" d="M143.19,58c7.75-2.91,15.14-5.72,22.57-8.45,2.37-.87,4.83-1.47,7.2-2.35a3.56,3.56,0,0,1,4.64,1.45c3.62,4.88,7.32,9.69,11,14.53.59.77,1.19,1.52,2.1,2.69a29,29,0,0,1-3.39,0q-9.18-1.23-18.34-2.56-10.51-1.55-21-3.2A7.78,7.78,0,0,1,143.19,58Z"/>
        <path class="cls-2" d="M142.81,56.56a7.75,7.75,0,0,1,.9-1.5q17.22-18.35,34.5-36.64a8.13,8.13,0,0,1,1.8-1.11l.41.35c-.32,1.9-.54,3.81-1,5.69-1.15,5.07-2.36,10.12-3.58,15.17a9,9,0,0,1-5.33,6.5c-4.09,1.78-8.13,3.7-12.23,5.49-4.58,2-9.2,3.94-13.81,5.9-.44.18-.89.32-1.34.48Z"/>
      </g>
      <g>
        <path class="cls-2" d="M59.58,99.54c7.75-2.91,15.15-5.71,22.57-8.45,2.37-.87,4.84-1.47,7.2-2.35A3.57,3.57,0,0,1,94,90.19c3.62,4.88,7.33,9.69,11,14.53.58.77,1.18,1.52,2.1,2.69a29.17,29.17,0,0,1-3.4,0q-9.17-1.23-18.33-2.56-10.53-1.55-21-3.2A7.81,7.81,0,0,1,59.58,99.54Z"/>
        <path class="cls-2" d="M59.2,98.15a8.28,8.28,0,0,1,.9-1.5Q77.34,78.31,94.61,60A8.29,8.29,0,0,1,96.4,58.9l.41.35c-.31,1.9-.53,3.82-1,5.69C94.71,70,93.5,75.06,92.28,80.11A9,9,0,0,1,87,86.61c-4.1,1.79-8.14,3.7-12.23,5.49-4.59,2-9.21,3.94-13.81,5.9-.44.18-.9.32-1.35.48Z"/>
        <path class="cls-2" d="M107.4,106.51c-1.5-2.42-3.05-4.82-4.51-7.27-2.38-4-4.78-8-7-12.1a7.4,7.4,0,0,1-.88-4c.8-7.63,1.79-15.24,2.71-22.85a4.57,4.57,0,0,1,.39-.7A16.9,16.9,0,0,1,99,62c1.28,6,2.52,12.06,3.79,18.1,1.62,7.69,3.27,15.38,4.87,23.07a26.74,26.74,0,0,1,.3,3.23Z"/>
      </g>
      <g>
        <path class="cls-2" d="M-24,58C-16.27,55-8.87,52.23-1.45,49.5c2.37-.87,4.84-1.47,7.2-2.35a3.56,3.56,0,0,1,4.64,1.45c3.62,4.88,7.33,9.69,11,14.53.59.77,1.19,1.52,2.1,2.69a29,29,0,0,1-3.39,0q-9.18-1.23-18.33-2.56-10.53-1.55-21-3.2A7.78,7.78,0,0,1-24,58Z"/>
        <path class="cls-2" d="M-24.4,56.56a8.28,8.28,0,0,1,.9-1.5Q-6.26,36.71,11,18.42a8.06,8.06,0,0,1,1.79-1.11l.41.35c-.32,1.9-.54,3.81-1,5.69-1.14,5.07-2.36,10.12-3.58,15.17A9,9,0,0,1,3.35,45c-4.1,1.78-8.14,3.7-12.24,5.49-4.58,2-9.2,3.94-13.81,5.9-.43.18-.89.32-1.34.48Z"/>
        <path class="cls-2" d="M23.8,64.92c-1.51-2.42-3.05-4.82-4.51-7.27-2.38-4-4.78-8-7-12.1a7.33,7.33,0,0,1-.88-4c.8-7.62,1.78-15.23,2.71-22.84a3.44,3.44,0,0,1,.39-.7,18,18,0,0,1,.91,2.41c1.29,6,2.53,12.06,3.8,18.09,1.62,7.7,3.27,15.39,4.86,23.08a28.72,28.72,0,0,1,.31,3.23Z"/>
      </g>
      <g>
        <path class="cls-2" d="M59.58,16.36c7.75-2.91,15.15-5.72,22.57-8.45C84.52,7,87,6.44,89.35,5.56A3.56,3.56,0,0,1,94,7c3.62,4.88,7.33,9.69,11,14.53.58.77,1.18,1.52,2.1,2.69a26.89,26.89,0,0,1-3.4,0Q94.54,23,85.37,21.66q-10.53-1.55-21-3.2A7.81,7.81,0,0,1,59.58,16.36Z"/>
        <path class="cls-2" d="M59.2,15a8.37,8.37,0,0,1,.9-1.51Q77.34-4.87,94.61-23.18a8.26,8.26,0,0,1,1.79-1.1l.41.35c-.31,1.9-.53,3.81-1,5.69C94.71-13.17,93.5-8.12,92.28-3.07A9,9,0,0,1,87,3.43c-4.1,1.78-8.14,3.7-12.23,5.49-4.59,2-9.21,3.94-13.81,5.9-.44.18-.9.32-1.35.47Z"/>
        <path class="cls-2" d="M107.4,23.33c-1.5-2.42-3.05-4.82-4.51-7.27-2.38-4-4.78-8-7-12.1A7.44,7.44,0,0,1,95,0c.8-7.62,1.79-15.23,2.71-22.84a4.11,4.11,0,0,1,.39-.7A16.9,16.9,0,0,1,99-21.18c1.28,6,2.52,12.06,3.79,18.09,1.62,7.7,3.27,15.38,4.87,23.08a26.55,26.55,0,0,1,.3,3.23Z"/>
      </g>
    </pattern>
  </defs>
  <circle class="cls-3" cx="197" cy="2143" r="619"/>
  <g id="Group_3" data-name="Group 3" class="cls-4">
    <path id="Path_1" data-name="Path 1" class="cls-5" d="M918.07,1511.32c264-81.51,516.09-160.35,768.92-236.79,80.62-24.39,164-39.47,244.57-64.12,68.34-20.92,113.32-1.05,151.68,57.63,111,169.75,225,337.49,337.93,505.93,17.93,26.74,36.47,53,64.65,94-46.22-2.74-80.44-1-113.07-7.35Q2069.5,1801.46,1766.9,1739q-347.81-72.19-694.8-148.12C1019.5,1579.33,965.78,1564.76,918.07,1511.32Z"/>
    <path id="Path_2" data-name="Path 2" class="cls-5" d="M908.16,1464.34c10.88-16.26,19.14-35.27,33-48.37Q1551.6,838.86,2163.66,263.41c16.48-15.48,41.09-22.31,61.92-33.18l12.91,12.31c-14.2,62.61-25.38,126.11-43.19,187.69-48.19,166.64-98.57,332.62-149.31,498.5-30.19,98.69-90.67,169.45-190.33,206-140.05,51.36-278.5,107.12-418.49,158.7-156.78,57.77-314.48,113-471.87,169.17-14.94,5.32-30.5,8.91-45.77,13.31Z"/>
    <path id="Path_3" data-name="Path 3" class="cls-5" d="M2497.82,1838.44c-45.43-83.65-92.26-166.57-135.92-251.15-71.34-138.21-143.36-276.23-209-417.16-18.66-40.09-28.39-92.09-21.31-135.18,41.69-252.55,89.54-504.1,135.58-755.94.78-4.23,4.85-7.85,14.42-22.53,10.44,32.73,21.79,56.85,25.64,82.12,30.93,203.39,60.14,407,90.5,610.52,38.71,259.58,78.48,519,116.47,778.72,5.19,35.42,2.76,72,3.84,108Z"/>
  </g>
  <circle class="cls-6" cx="2561" cy="3228" r="583"/>
  <g id="Group_3-2" data-name="Group 3" class="cls-4">
    <path id="Path_1-2" data-name="Path 1" class="cls-5" d="M594.43,4720.15c124.74-246.56,243.1-482.67,363.71-717.65,38.45-74.94,85.55-145.44,123.75-220.49,32.41-63.69,77.95-82.25,146.81-69.1,199.19,38.07,399.07,72.56,598.69,108.3,31.69,5.67,63.49,10.6,112.5,18.74-34.08,31.35-56.58,57.2-83.83,76.25q-253.15,177.11-508.26,351.42-293.5,200.09-589.14,397C713.8,4694.42,666,4722.94,594.43,4720.15Z"/>
    <path id="Path_2-2" data-name="Path 2" class="cls-5" d="M553.74,4694.64c-4.14-19.12-12.08-38.26-11.87-57.33q8.79-840,19.92-1680c.31-22.6,12.49-45.05,19.15-67.58l17.82-.75c35.18,53.71,73.1,105.86,105,161.45,86.41,150.4,170.83,301.93,254.93,453.65,50,90.27,58.92,182.93,16,280-60.32,136.43-116.38,274.76-176.5,411.3-67.34,152.92-137.1,304.76-206,457-6.55,14.45-14.78,28.12-22.22,42.17Z"/>
    <path id="Path_3-2" data-name="Path 3" class="cls-5" d="M1927,3810.84c-91.73-25.42-183.92-49.32-275.09-76.66-149-44.67-298.3-88.72-445.28-139.38-41.81-14.42-86-43.54-112.05-78.56-152.74-205.41-300.47-414.55-449.68-622.59-2.5-3.5-2.27-9-6.19-26,30.8,15.21,56,23.8,76.89,38.59,167.81,119,334.6,239.43,502.08,358.93,213.63,152.45,427.91,304,641.13,457.09,29.09,20.87,53.7,48,80.37,72.26Z"/>
  </g>
</svg>
