<svg id="Layer_1" data-name="Layer 1" xmlns="http://www.w3.org/2000/svg" width="122.66" height="122.66" viewBox="0 0 122.66 122.66">
  <defs>
    <style>
      .cls-1 {
        fill: #fff;
      }
    </style>
  </defs>
  <path class="cls-1" d="M8.47,59.89V31.17c0-1.87,0-3.73,0-5.6a19.24,19.24,0,0,1,6.1-14,19,19,0,0,1,13.5-5.72c5.06-.06,10.12,0,15.18,0H82.12c5.12,0,10.25,0,15.37.08a18.65,18.65,0,0,1,12.83,5.67,19.76,19.76,0,0,1,5.09,7.93,18.48,18.48,0,0,1,1,5.79c0,6.87,0,13.74,0,20.61q0,9.09,0,18.2t0,18c0,3.85,0,7.71,0,11.56-.12,8-3.91,14-10.78,17.94a18.16,18.16,0,0,1-9,2.32c-4.34,0-8.68,0-13,0-.53,0-.66-.21-.66-.69q0-8,0-16.06,0-9,0-18c0-2.15,0-4.3,0-6.46,0-.61.24-.75.8-.75q6.18,0,12.35,0c.87,0,.86,0,1-.88.28-2.24.59-4.47.88-6.71l.84-6.58c.06-.47.13-.93.19-1.4.11-.72.06-.78-.66-.78l-11.5,0c-1.08,0-2.17,0-3.25,0-.43,0-.59-.15-.58-.58,0-3.85,0-7.71.1-11.56A8.51,8.51,0,0,1,83.69,41a4.86,4.86,0,0,1,4.36-3.3c2.25-.23,4.53-.23,6.8-.3q2-.06,4.05,0c.6,0,.73-.24.73-.77,0-3,0-6,0-9,0-1.4,0-2.79,0-4.18,0-.53-.21-.71-.72-.77a95.09,95.09,0,0,0-13.07-.48c-5.21.18-9.94,1.71-13.8,5.4a18.38,18.38,0,0,0-5,8.47,36.83,36.83,0,0,0-1,10.25c0,2.87,0,5.74,0,8.61,0,.62-.17.81-.79.8-4.14,0-8.28,0-12.42,0-.85,0-.85,0-.85.85q0,7.32,0,14.64c0,.83,0,.85.87.85H65.28c.82,0,.83,0,.83.81v35.37c0,1.66,0,3.33,0,5,0,.51-.13.72-.69.72-6.56,0-13.11,0-19.67,0-5.76,0-11.52,0-17.27,0a19.76,19.76,0,0,1-16.22-8.42A19.32,19.32,0,0,1,8.46,93.42c0-4.92,0-9.84,0-14.77Z"/>
</svg>
