<svg id="Layer_1" data-name="Layer 1" xmlns="http://www.w3.org/2000/svg" width="504" height="190" viewBox="0 0 504 190">
  <defs>
    <style>
      .cls-1 {
        fill: #8fdbdc;
      }

      .cls-2 {
        fill: #919191;
      }
    </style>
  </defs>
  <path class="cls-1" d="M55.68,68.19a22.07,22.07,0,0,0-.5,2.65c-.32,4.78-.81,9.57-.84,14.36-.07,8.82.15,17.65.23,26.48,0,.59.19.72.75.55a50.27,50.27,0,0,0,9.18-4,34.31,34.31,0,0,1,9.9-3.47,41.37,41.37,0,0,1,12.51-.52,45.27,45.27,0,0,1,10.67,2.37,2.35,2.35,0,0,0,2.91-.61,21.21,21.21,0,0,1,8.1-4.79,46.32,46.32,0,0,1,17-2.83,30.36,30.36,0,0,1,24.22,13.9,7.31,7.31,0,0,1,.84,2.63c.53,2.86,1,5.73,1.48,8.59a2.22,2.22,0,0,0,.44.93,24.75,24.75,0,0,1,4.75,9.84,24.14,24.14,0,0,1,.18,10.12,24.63,24.63,0,0,1-17.71,19.13A24.47,24.47,0,0,1,114,154.89c-.47-.61-.87-1.26-1.36-1.86a1.39,1.39,0,0,0-.77-.49,46,46,0,0,1-9.56-2.74c-1.12-.47-2.2-1-3.31-1.49a1.28,1.28,0,0,0-.84-.05,61.2,61.2,0,0,1-13,3,118.15,118.15,0,0,1-23.78.45A108.66,108.66,0,0,1,49.11,150a41.85,41.85,0,0,1-14.79-5.58A20,20,0,0,1,25.67,134a44.67,44.67,0,0,1-1.31-5.77,45.22,45.22,0,0,1-.5-11.9c.29-3.92.8-7.83,1.29-11.73.33-2.6.76-5.2,1.21-7.79s1-5.44,1.54-8.16c.4-2.1.8-4.2,1.23-6.3.51-2.46,1-4.91,1.56-7.37s1-4.68,1.51-7a90.84,90.84,0,0,1,3.18-12.34c1.17-3.13,2.1-6.36,3.25-9.49a8.61,8.61,0,0,1,6.5-5.67c4.55-1,9.13-2,13.7-3,2.4-.52,4.8-1.12,7.24-1.48,4.7-.68,8.35,1.18,11.08,5,1.45,2,2.86,4,4.27,6a8.43,8.43,0,0,1-.17,10c-1.09,1.42-2.26,2.78-3.41,4.15a.64.64,0,0,0,0,1c3.1,4,.4,9.75-3.86,10.79a14.22,14.22,0,0,1-6.77-.17,46.62,46.62,0,0,1-10.89-4.42L56,68.19S55.89,68.19,55.68,68.19ZM103.84,109a5.43,5.43,0,0,0,.46.29l4.06,2.17c.31.17.56.32.28.74-.63,1-1.22,1.93-1.83,2.89a.52.52,0,0,1-.81.19,53.61,53.61,0,0,0-11.37-4.72,45.35,45.35,0,0,0-13.14-1.89,33.26,33.26,0,0,0-14.19,3.2,71.21,71.21,0,0,1-9.37,4.26,42.78,42.78,0,0,1-9.09,1.79c-.52,0-.71-.13-.69-.66,0-.9,0-1.81,0-2.72s0-1.07,1-1.11c.67,0,.94-.27.89-1-.11-1.39-.2-2.79-.21-4.18-.07-6.76-.16-13.51-.14-20.27a107.5,107.5,0,0,1,1.52-20,23.62,23.62,0,0,1,1.37-4.22,1.88,1.88,0,0,1,2.15-1.21,5.34,5.34,0,0,1,1.78.7,42.55,42.55,0,0,0,12.89,5.32,6.11,6.11,0,0,0,3.64-.13,2.45,2.45,0,0,0,.79-4,5.9,5.9,0,0,0-4.16-1.71,6.42,6.42,0,0,1-3.5-1c-3.24-2.06-5.25-5.14-7-8.44-.05-.11.12-.46.28-.54.94-.51,1.92-.94,2.85-1.46.52-.28.75-.16,1,.32.87,1.38,1.8,2.71,2.73,4.05a14.39,14.39,0,0,0,1,1.1l.24-.2L66.91,56c.14-1.24.26-2.46.44-3.67,0-.17.35-.4.55-.41.93,0,1.86,0,2.79,0,1.13,0,1.15,0,1.1,1.12a4,4,0,0,1-.05.7c-.29,1.29-.59,2.57-.89,3.86-.07.32-.22.63.3.74.7.15,1.39.4,2.09.51a1.14,1.14,0,0,0,.89-.29c1.19-1.37,2.34-2.77,3.48-4.18a3.88,3.88,0,0,0,.25-4.74c-1.51-2.18-3-4.37-4.59-6.5a6.35,6.35,0,0,0-6.07-2.72c-1,.11-2,.38-3.08.59L55.66,42.8c-2.93.63-5.86,1.29-8.8,1.88a5.19,5.19,0,0,0-4.36,3.79c-1,3.24-2.13,6.44-3.23,9.64a56.41,56.41,0,0,0-2.08,7.67c-.46,2.35-1,4.68-1.54,7s-1,4.49-1.45,6.75c-.53,2.55-1,5.1-1.53,7.66-.63,3.22-1.28,6.43-1.85,9.66s-1,6.25-1.48,9.38c-.39,2.76-.75,5.54-1,8.32a53.79,53.79,0,0,0,.23,12.68A21.46,21.46,0,0,0,30.41,134c2,3.79,5.15,6.26,8.86,8.11a46.91,46.91,0,0,0,14.89,4.25c3.5.48,7,.71,10.57,1a105.15,105.15,0,0,0,17-.28,63.58,63.58,0,0,0,12.4-2.28,26.1,26.1,0,0,0,9.32-4.58.83.83,0,0,1,.78,0c.91.64,1.78,1.34,2.68,2,.39.29.36.56,0,.85-.77.67-1.55,1.33-2.34,2-.18.16-.38.29-.57.44v.25l6.17,1.86c-2.42-10.83.14-19.95,8.91-26.61s18.25-6.61,27.92-1.38c-.23-1.2-.41-2.27-.64-3.33a5.43,5.43,0,0,0-.63-2,38.45,38.45,0,0,0-3.55-4.2A25,25,0,0,0,131.86,104a22.5,22.5,0,0,0-9.38-1.06c-3.16.37-6.31.92-9.42,1.58a22.47,22.47,0,0,0-8.19,3.58C104.53,108.36,104.22,108.66,103.84,109Zm30.2,51.8A20.11,20.11,0,1,0,114,141.14,20.1,20.1,0,0,0,134,160.79Z"/>
  <path class="cls-1" d="M98.82,61.35c-.38.46-.77.92-1.14,1.38-1.08,1.35-2.17,2.68-3.22,4-.31.39-.56.41-.92.11-.83-.69-1.66-1.36-2.51-2-.39-.3-.36-.55-.07-.91,2.8-3.48,5.57-7,8.37-10.47a2.29,2.29,0,0,1,3.85,0c2.77,3.45,5.52,6.92,8.29,10.36.39.47.38.75-.11,1.11-.81.59-1.58,1.23-2.34,1.88-.41.34-.68.32-1-.12-1.28-1.64-2.59-3.24-3.89-4.85-.13-.17-.29-.33-.56-.65,0,.44,0,.68,0,.92q0,15.8,0,31.58c0,1.45.08,1.25-1.22,1.25-.84,0-1.68,0-2.51,0-.57,0-.78-.13-.78-.73,0-4.21,0-8.43,0-12.64Q99,71.79,99,62c0-.18,0-.36,0-.54Z"/>
  <path class="cls-1" d="M130.25,54.53c-.26.3-.42.47-.57.66-1.27,1.58-2.56,3.14-3.8,4.74-.41.54-.71.51-1.18.11-.75-.65-1.55-1.27-2.34-1.87-.38-.29-.4-.53-.1-.91,2.84-3.52,5.64-7.06,8.47-10.57a2.25,2.25,0,0,1,3.71,0c2.81,3.5,5.6,7,8.42,10.52.32.4.32.63-.11.94-.82.61-1.61,1.26-2.39,1.93-.43.37-.71.36-1.07-.1-1.26-1.62-2.55-3.21-3.84-4.8-.14-.18-.29-.35-.57-.69,0,.41-.06.64-.06.87q0,15.83,0,31.65c0,1.42.13,1.22-1.23,1.24-.79,0-1.59-.06-2.37,0s-.9-.24-.89-.92c0-4.82,0-9.64,0-14.46V55.16C130.33,55,130.29,54.85,130.25,54.53Z"/>
  <path class="cls-1" d="M78.5,139.65a28.23,28.23,0,0,1-12.78-3.17c-.51-.26-.63-.49-.31-1,.55-.86,1-1.76,1.52-2.66a.57.57,0,0,1,.9-.28A22.63,22.63,0,0,0,79.29,135a34,34,0,0,0,9.08-1.35c.36-.1.56,0,.67.35.33,1.09.68,2.18,1,3.26.18.55-.2.65-.57.74-1.26.3-2.52.66-3.8.84C83.3,139.15,80.9,139.38,78.5,139.65Z"/>
  <path class="cls-1" d="M138.72,137.79c.95,0,1.91,0,2.86,0s1,0,1,1,0,1.86,0,2.8c0,.53-.18.75-.73.74-2,0-4,0-5.94,0-1,0-1,0-1,1,0,2,0,3.91,0,5.87,0,.61-.21.82-.81.8-.86,0-1.73,0-2.59,0-1.09,0-1.1,0-1.1-1.08,0-2,0-3.91,0-5.87,0-.58-.18-.76-.76-.75-2,0-4,0-6.08,0-.6,0-.84-.15-.81-.78.05-1,0-2,0-3.07,0-.49.18-.65.66-.65,2,0,3.91,0,5.87,0,1.09,0,1.1,0,1.1-1.12,0-1.91,0-3.82,0-5.73,0-.56.16-.81.75-.79,1,0,2.05,0,3.08,0,.52,0,.69.17.68.69,0,2,0,4.1,0,6.15,0,.68.23.84.85.81C136.71,137.76,137.71,137.79,138.72,137.79Z"/>
  <path class="cls-1" d="M376.94,132.86c-1.27.46-2.3.9-3.37,1.23a12.59,12.59,0,0,1-13.8-4.32A12.31,12.31,0,0,1,359,115.2a2.59,2.59,0,0,0,0-3.25,12,12,0,0,1,.08-13.56,2.3,2.3,0,0,0,0-2.88c-2.87-4.62-2.94-9.32.06-13.91a2.13,2.13,0,0,0-.06-2.71c-2.73-4.39-3-9-.29-13.41s7-6.86,12.3-6.18a19.16,19.16,0,0,1,6.3,2.49c1.11.6,1.76.78,2.85,0,5.3-3.83,11.71-3.46,16.34.84a12.74,12.74,0,0,1,2.16,16.11,2.6,2.6,0,0,0,0,3.1,13,13,0,0,1-.07,13.85,3,3,0,0,0,0,2.47c2.61,4.72,2.83,9.39,0,14a2.27,2.27,0,0,0,0,2.74c4.6,7.9,1.06,16.85-7.66,19.39a12.24,12.24,0,0,1-8.31-.76c-.59-.25-1.21-.43-2.27-.8,0,3.68,0,7,0,10.27-.05,5.45-.06,5.45,5.4,5.45,12.05,0,24.09,0,36.14,0,1.93,0,2.57-.54,2.54-2.51-.11-8.25-.07-16.51-.1-24.76,0-.72-.11-1.43-.19-2.34-1.75.55-3.25,1.1-4.79,1.48-8.79,2.15-17.54-6.1-16-15a13.21,13.21,0,0,1,8.7-10.8,2.86,2.86,0,0,0,2.19-2.88c.37-5.6,5.56-10.33,11.28-10.51,6-.19,11.63,4.21,12.25,9.9a3.94,3.94,0,0,0,2.83,3.74c5.11,2.19,8,6.23,8.23,11.77a12.88,12.88,0,0,1-6.61,12.21,13.06,13.06,0,0,1-12.26.8c-.55-.23-1.12-.42-2-.74a19.44,19.44,0,0,0-.27,2.25c0,8.32,0,16.64-.1,25,0,2,.7,2.49,2.59,2.48,11.36-.08,22.73,0,34.1,0a4.73,4.73,0,0,1,1.81.06,8.9,8.9,0,0,1,1.71,1.4,10.45,10.45,0,0,1-1.65,1.73c-.38.25-1.05.08-1.59.08q-61.71,0-123.42,0c-.48,0-1.06.16-1.4-.06a12.06,12.06,0,0,1-1.75-1.61c.59-.53,1.15-1.47,1.77-1.51,2.9-.17,5.81-.11,8.72-.11,8.73,0,17.46,0,26.19.06,1.81,0,2.53-.43,2.45-2.36-.14-3.79-.06-7.58-.08-11.37C377.12,134.25,377,133.66,376.94,132.86Zm3.49-44.39.68.21a14.1,14.1,0,0,0,1.22-.94A21.27,21.27,0,0,1,385.25,85c.69-.44,1.78-.25,2.69-.34a8.65,8.65,0,0,1-.42,2.48,5.25,5.25,0,0,1-1.67,1.75c-4.37,3.23-6.49,7.37-5.37,12.89a8.4,8.4,0,0,1,0,1.42c.05,1,.11,1.94.21,3.45.91-.76,1.42-1.14,1.87-1.58a23.09,23.09,0,0,1,2.77-2.66,2.7,2.7,0,0,1,2.39-.3c1.13.72.57,1.75-.2,2.56a15.64,15.64,0,0,1-1.87,1.86c-4.24,3.17-6.24,7.22-5.2,12.59a20.5,20.5,0,0,1,0,3,16.22,16.22,0,0,0,.4,1.93c1.6-1.56,2.9-2.8,4.18-4.06.87-.85,2-1.35,2.78-.3a2.87,2.87,0,0,1-.51,2.54,62.47,62.47,0,0,1-4.95,5.08c-1.12,1.06-1,1.91.32,2.48a14.78,14.78,0,0,0,4.53,1.56,8.76,8.76,0,0,0,9-5A9.13,9.13,0,0,0,395,115.62c-1.13-1.33-1.5-2.37-.21-3.86,3.51-4,3.56-8.75.12-12.88-1.17-1.4-1.25-2.43,0-3.85,3.41-3.93,3.42-8.7.05-12.71-1.24-1.46-1.28-2.56,0-4A9.48,9.48,0,0,0,380.9,65.59c-1.75,1.83-2.31,1.83-4.09,0-3.77-3.9-9.47-4.2-13.29-.72a9.43,9.43,0,0,0-.74,13.46c1.35,1.51,1.27,2.47,0,3.94-3.37,4-3.37,9,0,12.71,1.35,1.5,1.25,2.49,0,4a9.42,9.42,0,0,0-.88,11.63c2,3,2,3,.09,6a9.5,9.5,0,0,0,13,13.34c1.26-.85,1.47-1.57.29-2.68-1.64-1.52-3.17-3.14-4.75-4.72-.87-.87-1.69-2-.55-2.9.47-.38,2,.08,2.75.61a39.74,39.74,0,0,1,3.92,3.67,3.73,3.73,0,0,0,.4-1c0-3.45.1-6.9,0-10.35a3.21,3.21,0,0,0-1-1.88c-1.66-1.77-3.42-3.45-5.14-5.18-1-1-2.32-2-1-3.38s2.37.28,3.31,1.08c1.15,1,2.18,2.07,3.26,3.12l.61-.23c0-3.41.09-6.83-.05-10.24A5,5,0,0,0,376,92.94c-1.7-1.92-3.7-3.58-5.37-5.52-.57-.66-1-2.24-.65-2.72.92-1.2,2-.35,2.9.49L377,89.13c.08-1.32.16-2,.17-2.73,0-3-.08-6,.13-8.93.06-.84.91-2.19,1.58-2.31,1.44-.27,1.57,1.09,1.58,2.22s0,2.3,0,3.45Zm47.33,15.69.68.19,2.59-2.42c.85-.8,1.76-1.47,2.79-.4s.28,1.88-.46,2.64c-1.51,1.55-3.07,3-4.56,4.61a4.66,4.66,0,0,0,.16,6.36,10.09,10.09,0,0,0,11.2,1.11A10,10,0,0,0,445.52,106a9.83,9.83,0,0,0-8.31-8.73c-1.94-.38-2.77-1.24-2.55-3.32a8.85,8.85,0,0,0-.51-4,8.73,8.73,0,0,0-9.65-5.37,8.59,8.59,0,0,0-7,9.07c.07,2.86-.09,3-2.66,3.55a9.61,9.61,0,0,0-7.84,7.3,9.49,9.49,0,0,0,3.31,10.55,9.7,9.7,0,0,0,10.64,1.51c4.2-1.86,4.81-5.28,1.62-8.62a54.34,54.34,0,0,1-3.79-4,2.71,2.71,0,0,1-.37-2.4c.72-1.15,1.76-.55,2.57.19s1.9,1.78,3.24,3c.09-1.36.17-2.14.2-2.92a37.74,37.74,0,0,1,.19-4.65,2.17,2.17,0,0,1,1.48-1.46c.5,0,1.34.82,1.49,1.42a15,15,0,0,1,.19,3.43C427.78,101.83,427.76,103,427.76,104.16Z"/>
  <path class="cls-1" d="M432.27,46.17a11.12,11.12,0,1,1,11,11.32A11.22,11.22,0,0,1,432.27,46.17Zm3.3.28a7.93,7.93,0,0,0,8,7.76,7.83,7.83,0,0,0,7.58-7.9,7.56,7.56,0,0,0-7.71-7.69A7.83,7.83,0,0,0,435.57,46.45Z"/>
  <path class="cls-2" d="M445,26.63a11.17,11.17,0,0,1-.07,3,2.3,2.3,0,0,1-1.59,1.42c-.47,0-1.36-.93-1.41-1.51a34,34,0,0,1,0-6.05c.05-.58.94-1.52,1.42-1.5A2.27,2.27,0,0,1,445,23.41,13.27,13.27,0,0,1,445,26.63Z"/>
  <path class="cls-2" d="M433.06,34.38c0,1.47-1.35,2.22-2.44,1.33a39.81,39.81,0,0,1-4.57-4.52,2.13,2.13,0,0,1,.1-2,1.77,1.77,0,0,1,1.71-.36c1.76,1.54,3.39,3.23,5,4.9C433.06,33.92,433,34.26,433.06,34.38Z"/>
  <path class="cls-1" d="M455.19,56.5a7.18,7.18,0,0,1,1.49.84,33.12,33.12,0,0,1,3.77,3.91c.41.54.1,1.62.11,2.46-.78-.08-1.8.12-2.32-.3a29.86,29.86,0,0,1-4-4,2.7,2.7,0,0,1-.28-2C454.05,57.09,454.73,56.84,455.19,56.5Z"/>
  <path class="cls-2" d="M423.55,47.89a14.38,14.38,0,0,1-3,0c-.56-.13-1.43-.86-1.4-1.26,0-.64.7-1.72,1.16-1.75a41.81,41.81,0,0,1,6.62,0,2,2,0,0,1,1.15,1.54,2.39,2.39,0,0,1-1.51,1.45,12.57,12.57,0,0,1-3,.06Z"/>
  <path class="cls-2" d="M463.05,47.92a10.52,10.52,0,0,1-2.81-.06c-.62-.18-1.5-1-1.48-1.46a2.13,2.13,0,0,1,1.39-1.59,35.26,35.26,0,0,1,6.25,0,2.15,2.15,0,0,1,1.38,1.59c0,.51-.89,1.3-1.51,1.45a14.38,14.38,0,0,1-3.22.06Z"/>
  <path class="cls-1" d="M441.9,65.92a12.42,12.42,0,0,1,.05-2.8c.14-.57.89-1.44,1.28-1.4.63.07,1.65.74,1.7,1.23a36.23,36.23,0,0,1,0,6.42c0,.5-1.09,1.27-1.67,1.26s-1.24-.89-1.38-1.5a14.9,14.9,0,0,1-.07-3.21Z"/>
  <path class="cls-1" d="M433.31,58.15a8.24,8.24,0,0,1-.88,1.47,38.71,38.71,0,0,1-3.91,3.78c-.52.42-1.53.22-2.31.3,0-.83-.24-1.92.18-2.45a27.73,27.73,0,0,1,4-4,2.76,2.76,0,0,1,2-.33C432.71,57,433,57.68,433.31,58.15Z"/>
  <path class="cls-2" d="M455.07,36.1c-.31-.23-.92-.46-1.07-.86a2,2,0,0,1,.11-1.66A57.71,57.71,0,0,1,458.68,29a1.81,1.81,0,0,1,1.76,0c.39.31.73,1.44.5,1.69-1.61,1.78-3.36,3.44-5.08,5.12C455.73,36,455.48,36,455.07,36.1Z"/>
  <g>
    <path class="cls-1" d="M254.08,59.34l1.29-2.15c4.1-7,9.71-12.33,17.51-15a26.75,26.75,0,0,1,24.16,3c8.27,5.38,13,13.21,15.09,22.79a40.63,40.63,0,0,1-1.44,21.72,2.1,2.1,0,0,1-2.41,1.55c-6.4,0-12.81.15-19.2-.12-4.39-.18-7,1.86-8.67,5.56-.7,1.52-1.35,3.07-2.05,4.6a7.44,7.44,0,0,1-.93,1.59c-1,1.23-2.18,1.09-2.56-.47-.56-2.33-.72-4.76-1.27-7.1-.7-2.92-1.22-6-2.53-8.64-2.48-5-8.21-5.18-11.48-.67a28.87,28.87,0,0,0-4.16,9.85c-1.19,4.5-2.15,9-3.36,13.54a9.89,9.89,0,0,1-1.77,2.63,10.61,10.61,0,0,1-1.57-2.91c-1.24-7.35-2.26-14.74-3.53-22.09-1-5.74-1.93-11.52-4.61-16.8-2.76-5.46-7.47-5.87-10.67-.62a43.67,43.67,0,0,0-4.1,10c-1.36,4.44-2.27,9-3.4,13.52a2.84,2.84,0,0,1-3.19,2.34q-8.92-.09-17.86,0A2.35,2.35,0,0,1,198.9,94a40.33,40.33,0,0,1-3.84-17.77,38.59,38.59,0,0,1,6.46-21.61c4.76-7,11.12-12,19.57-13.47,10.6-1.86,19.64,1.48,26.85,9.45a75,75,0,0,1,5.19,7.21C253.38,58.2,253.6,58.57,254.08,59.34Z"/>
    <path class="cls-1" d="M305.57,101c-.76,1.09-1.16,1.75-1.65,2.34q-15.48,18.75-31,37.49c-4.43,5.37-8.85,10.75-13.3,16.09-3.46,4.15-8.17,4.09-11.6-.11q-19.89-24.39-39.78-48.8c-.62-.76-1.17-1.58-2-2.69,1.06-.08,1.71-.17,2.35-.17,4.89,0,9.78-.11,14.66,0,2.58.07,4.34-1,5.11-3.27,1.3-3.85,2.33-7.81,3.41-11.74.76-2.75,1.33-5.56,2.15-8.29.2-.67,1-1.16,1.57-1.73.43.6,1.1,1.15,1.25,1.81.67,3.07,1.24,6.16,1.78,9.25,1.39,8,2.6,16,4.2,24a27.29,27.29,0,0,0,3.18,7.9c2.25,4,5.92,4.14,8.9.64,2.54-3,3.71-6.65,4.61-10.36,1.45-6,2.66-12,4.09-18a9.7,9.7,0,0,1,1.54-2.55,8.9,8.9,0,0,1,1.39,2.43c.49,2.35.56,4.81,1.15,7.13a32.43,32.43,0,0,0,2.75,8c2.36,4.18,7.64,4.29,10.51.44a60.53,60.53,0,0,0,3.44-5.38c1.89-3.17,4.47-4.79,8.33-4.52,3.52.25,7.07,0,10.61,0Z"/>
  </g>
</svg>
