<svg id="Layer_1" data-name="Layer 1" xmlns="http://www.w3.org/2000/svg" width="122.75" height="122.75" viewBox="0 0 122.75 122.75">
  <defs>
    <style>
      .cls-1 {
        fill: #fff;
      }
    </style>
  </defs>
  <g>
    <path class="cls-1" d="M61.74,42.31A19,19,0,1,0,80.8,61.24,19.06,19.06,0,0,0,61.74,42.31Z"/>
    <path class="cls-1" d="M98.39,6.91H24.28a16.94,16.94,0,0,0-16.94,17V98a16.93,16.93,0,0,0,16.94,16.94H98.39a16.94,16.94,0,0,0,17-16.94V23.86A17,17,0,0,0,98.39,6.91ZM61.67,91.48a30.15,30.15,0,1,1,30.27-30A30.18,30.18,0,0,1,61.67,91.48Zm36.24-60a6.23,6.23,0,1,1,6.22-6.26A6.22,6.22,0,0,1,97.91,31.51Z"/>
  </g>
</svg>
