<svg id="Layer_1" data-name="Layer 1" xmlns="http://www.w3.org/2000/svg" width="122.75" height="122.75" viewBox="0 0 122.75 122.75">
  <defs>
    <style>
      .cls-1 {
        fill: #fff;
      }
    </style>
  </defs>
  <g>
    <path class="cls-1" d="M77.06,61.49l-.33-.2L56.33,49.05c-1.18-.71-2.35-1.42-3.54-2.11a1,1,0,0,0-1.58.52,2.89,2.89,0,0,0,0,.66V62.41h0v5.23c0,3.13,0,6.27,0,9.4a1.25,1.25,0,0,0,.2.71c.36.53.86.55,1.56.13L71.41,66.8c1.88-1.13,3.78-2.26,5.65-3.42A1,1,0,0,0,77.06,61.49Z"/>
    <path class="cls-1" d="M98.55,6.05H24.43A16.94,16.94,0,0,0,7.49,23V97.1a17,17,0,0,0,16.94,17H98.55a16.94,16.94,0,0,0,16.94-17V23A16.93,16.93,0,0,0,98.55,6.05Zm6.93,60.18a99.6,99.6,0,0,1-1,12.56,20.69,20.69,0,0,1-1.18,5,10.62,10.62,0,0,1-2.61,3.75A10.25,10.25,0,0,1,96,90.17a40.65,40.65,0,0,1-4.27.62c-1.47.18-3,.34-4.43.47-2.26.2-4.52.4-6.78.55-3.49.22-7,.4-10.48.58-1.11,0-2.23.06-3.35.08-2.08,0-4.16.07-6.23,0-2.83,0-5.66-.07-8.48-.2-3.26-.14-6.51-.32-9.76-.57-3-.23-6-.57-9.06-.87-1.3-.13-2.6-.26-3.9-.43A10.47,10.47,0,0,1,22,86.33a11.89,11.89,0,0,1-2.31-5.86c-.31-2.24-.62-4.49-.8-6.75-.21-2.48-.29-5-.37-7.47-.05-1.77,0-3.55,0-5.32h-.09c.1-2.48.19-5,.3-7.43a74.3,74.3,0,0,1,1-9.29,12.22,12.22,0,0,1,1.63-4.57,10.41,10.41,0,0,1,5.46-4.45,16.34,16.34,0,0,1,3.31-.74c3-.37,6-.68,9-1,2.08-.2,4.17-.35,6.26-.47,2.93-.16,5.87-.31,8.81-.38,3.94-.09,7.89-.14,11.84-.12,2.57,0,5.14.11,7.71.25,3.28.18,6.56.37,9.84.66,3.82.34,7.63.72,11.44,1.19a10.16,10.16,0,0,1,7,4.17,12.06,12.06,0,0,1,2.17,5.36A112.53,112.53,0,0,1,105.48,66.23Z"/>
  </g>
</svg>
